<svg xmlns="http://www.w3.org/2000/svg" viewBox="0 0 800 600">
<defs>
<radialGradient id="glow" cx="50%" cy="35%" r="75%">
  <stop offset="0%" stop-color="#10291C"/><stop offset="100%" stop-color="#0A1E14"/>
</radialGradient>
<linearGradient id="coffee" x1="0" y1="0" x2="0" y2="1">
  <stop offset="0%" stop-color="#D08A55"/><stop offset="100%" stop-color="#B96A3D"/>
</linearGradient>
</defs>
<rect width="800" height="600" fill="url(#glow)"/>
<circle cx="400" cy="300" r="215" fill="none" stroke="#8A6D3B" stroke-opacity="0.35" stroke-width="2"/>
<circle cx="400" cy="300" r="240" fill="none" stroke="#8A6D3B" stroke-opacity="0.18" stroke-width="1.5" stroke-dasharray="3 9"/>

<g stroke="#EFE6CC" stroke-opacity="0.4" stroke-width="3.4" fill="none" stroke-linecap="round">
<path d="M381.3 168 c 6.8 -15.299999999999999 -6.8 -25.5 1.7 -40.8"/>
<path d="M401.7 162.9 c 6.8 -15.299999999999999 -6.8 -25.5 1.7 -40.8"/>
<path d="M422.1 168 c 6.8 -15.299999999999999 -6.8 -25.5 1.7 -40.8"/>
</g>
<path d="M330 180 L470 180 L418 300 L470 470 L330 470 L382 300 Z" fill="none" stroke="#C9A24B" stroke-width="7" stroke-linejoin="round"/>
<path d="M376 288 L424 288 L424 316 L376 316 Z" fill="#8A6D3B"/>
<path d="M368 322 q 32 -14 64 0 L455 430 q -55 22 -110 0 Z" fill="url(#coffee)" opacity="0.92"/>
<path d="M348 196 L452 196" stroke="#8A6D3B" stroke-width="3" stroke-dasharray="5 8"/>
<circle cx="400" cy="246" r="7" fill="#B96A3D"/><circle cx="400" cy="268" r="7" fill="#B96A3D"/>

</svg>