<svg xmlns="http://www.w3.org/2000/svg" viewBox="0 0 800 600">
<defs>
<radialGradient id="glow" cx="50%" cy="35%" r="75%">
  <stop offset="0%" stop-color="#10291C"/><stop offset="100%" stop-color="#0A1E14"/>
</radialGradient>
<linearGradient id="coffee" x1="0" y1="0" x2="0" y2="1">
  <stop offset="0%" stop-color="#D08A55"/><stop offset="100%" stop-color="#B96A3D"/>
</linearGradient>
</defs>
<rect width="800" height="600" fill="url(#glow)"/>
<circle cx="400" cy="300" r="215" fill="none" stroke="#8A6D3B" stroke-opacity="0.35" stroke-width="2"/>
<circle cx="400" cy="300" r="240" fill="none" stroke="#8A6D3B" stroke-opacity="0.18" stroke-width="1.5" stroke-dasharray="3 9"/>

<path d="M330 150 L470 150 L458 480 L342 480 Z" fill="none" stroke="#C9A24B" stroke-width="7" stroke-linejoin="round"/>
<path d="M340 240 L460 240 L452 464 L348 464 Z" fill="url(#coffee)" opacity="0.9"/>
<g fill="none" stroke="#EFE6CC" stroke-opacity="0.85" stroke-width="5" stroke-linejoin="round">
<rect x="362" y="268" width="52" height="52" rx="8" transform="rotate(-12 388 294)"/>
<rect x="396" y="330" width="56" height="56" rx="8" transform="rotate(9 424 358)"/>
<rect x="356" y="392" width="50" height="50" rx="8" transform="rotate(-7 381 417)"/>
</g>
<path d="M452 128 L460 150 L436 150 Z" fill="#C9A24B"/>
<line x1="452" y1="132" x2="404" y2="252" stroke="#C9A24B" stroke-width="6" stroke-linecap="round"/>

</svg>