<svg xmlns="http://www.w3.org/2000/svg" viewBox="0 0 800 600">
<defs>
<radialGradient id="glow" cx="50%" cy="35%" r="75%">
  <stop offset="0%" stop-color="#10291C"/><stop offset="100%" stop-color="#0A1E14"/>
</radialGradient>
<linearGradient id="coffee" x1="0" y1="0" x2="0" y2="1">
  <stop offset="0%" stop-color="#D08A55"/><stop offset="100%" stop-color="#B96A3D"/>
</linearGradient>
</defs>
<rect width="800" height="600" fill="url(#glow)"/>
<circle cx="400" cy="300" r="215" fill="none" stroke="#8A6D3B" stroke-opacity="0.35" stroke-width="2"/>
<circle cx="400" cy="300" r="240" fill="none" stroke="#8A6D3B" stroke-opacity="0.18" stroke-width="1.5" stroke-dasharray="3 9"/>

<g stroke="#EFE6CC" stroke-opacity="0.4" stroke-width="3.4" fill="none" stroke-linecap="round">
<path d="M381.3 190 c 6.8 -15.299999999999999 -6.8 -25.5 1.7 -40.8"/>
<path d="M401.7 184.9 c 6.8 -15.299999999999999 -6.8 -25.5 1.7 -40.8"/>
<path d="M422.1 190 c 6.8 -15.299999999999999 -6.8 -25.5 1.7 -40.8"/>
</g>
<path d="M308 210 L492 210 L448 330 L352 330 Z" fill="none" stroke="#C9A24B" stroke-width="7" stroke-linejoin="round"/>
<path d="M322 232 q 10 10 20 0 q 10 -10 20 0 q 10 10 20 0 q 10 -10 20 0 q 10 10 20 0 q 10 -10 20 0 q 10 10 20 0 q 10 -10 16 0" fill="none" stroke="#8A6D3B" stroke-width="4"/>
<path d="M352 330 L448 330" stroke="#C9A24B" stroke-width="7"/>
<circle cx="372" cy="356" r="7" fill="#B96A3D"/><circle cx="400" cy="372" r="7" fill="#B96A3D"/><circle cx="428" cy="356" r="7" fill="#B96A3D"/>
<path d="M320 420 L480 420 L466 505 L334 505 Z" fill="none" stroke="#C9A24B" stroke-width="7" stroke-linejoin="round"/>
<path d="M336 452 L464 452 L456 490 L344 490 Z" fill="url(#coffee)"/>

</svg>