<svg xmlns="http://www.w3.org/2000/svg" viewBox="0 0 800 600">
<defs>
<radialGradient id="glow" cx="50%" cy="35%" r="75%">
  <stop offset="0%" stop-color="#10291C"/><stop offset="100%" stop-color="#0A1E14"/>
</radialGradient>
<linearGradient id="coffee" x1="0" y1="0" x2="0" y2="1">
  <stop offset="0%" stop-color="#D08A55"/><stop offset="100%" stop-color="#B96A3D"/>
</linearGradient>
</defs>
<rect width="800" height="600" fill="url(#glow)"/>
<circle cx="400" cy="300" r="215" fill="none" stroke="#8A6D3B" stroke-opacity="0.35" stroke-width="2"/>
<circle cx="400" cy="300" r="240" fill="none" stroke="#8A6D3B" stroke-opacity="0.18" stroke-width="1.5" stroke-dasharray="3 9"/>

<g stroke="#EFE6CC" stroke-opacity="0.4" stroke-width="3.4" fill="none" stroke-linecap="round">
<path d="M381.3 182 c 6.8 -15.299999999999999 -6.8 -25.5 1.7 -40.8"/>
<path d="M401.7 176.9 c 6.8 -15.299999999999999 -6.8 -25.5 1.7 -40.8"/>
<path d="M422.1 182 c 6.8 -15.299999999999999 -6.8 -25.5 1.7 -40.8"/>
</g>
<path d="M296 200 L504 200 L414 356 L386 356 Z" fill="none" stroke="#C9A24B" stroke-width="7" stroke-linejoin="round"/>
<g stroke="#8A6D3B" stroke-width="4" fill="none">
<path d="M330 200 L396 352"/><path d="M366 200 L399 354"/>
<path d="M434 200 L403 354"/><path d="M470 200 L405 352"/>
</g>
<circle cx="400" cy="382" r="7" fill="#B96A3D"/><circle cx="400" cy="404" r="7" fill="#B96A3D"/>
<path d="M352 430 L448 430 L436 500 L364 500 Z" fill="none" stroke="#C9A24B" stroke-width="7" stroke-linejoin="round"/>
<path d="M366 462 L434 462 L428 490 L372 490 Z" fill="url(#coffee)"/>

</svg>